PathFileType	4	(X/Y/Z)	0_coords_data.trc
DataRate	CameraRate	NumFrames	NumMarkers	Units	OrigDataRate	OrigDataStartFrame	OrigNumFrames
30.0	30.0	6	21	m	30.0	32	53
Frame#	Time	THUMB_TIP	THUMB_IP	THUMB_MCP	THUMB_CMC	INDEX_TIP	INDEX_DIP	INDEX_PIP	INDEX_MCP	MIDDLE_TIP	MIDDLE_DIP	MIDDLE_PIP	MIDDLE_MCP	RING_TIP	RING_DIP	RING_PIP	RING_MCP	PINKY_TIP	PINKY_DIP	PINKY_PIP	PINKY_MCP	WRIST
X1	Y1	Z1	X2	Y2	Z2	X3	Y3	Z3	X4	Y4	Z4	X5	Y5	Z5	X6	Y6	Z6	X7	Y7	Z7	X8	Y8	Z8	X9	Y9	Z9	X10	Y10	Z10	X11	Y11	Z11	X12	Y12	Z12	X13	Y13	Z13	X14	Y14	Z14	X15	Y15	Z15	X16	Y16	Z16	X17	Y17	Z17	X18	Y18	Z18	X19	Y19	Z19	X20	Y20	Z20	X21	Y21	Z21
30	1.0333333333333288	0.5420238394809545	-0.019430635386873618	-0.1340657606195475	0.52286749571117	-0.017008464968773562	-0.12160913251080466	0.49208245714582366	-0.018445464846011617	-0.11724605654504797	0.47616895855370955	-0.027677935204540316	-0.07660848706017764	0.5713944197819045	0.04267143678157037	-0.1529460666465436	0.5561437388550492	0.037500658249752516	-0.1446587401390297	0.5349437473513425	0.03190013023031829	-0.13236222522030988	0.5009511696973448	0.02841354519226874	-0.10694600041784602	0.5195280129480201	-0.007050283400459101	-0.11481416590246596	0.5348429539705005	-0.005063889877942429	-0.12427497042701074	0.5474992007536077	0.020668283543570143	-0.1190707203974389	0.5161675724818402	0.02661807414476597	-0.0877805145393479	0.5289434654686203	-0.01585281732523003	-0.10430624455709694	0.5447825471835092	-0.013374639742898209	-0.1125513719848269	0.5581905502334694	0.006618255657063976	-0.10617253457206671	0.5304406289039305	0.010729853284509039	-0.07705625965314208	0.5956156329777146	0.024747005813638645	-0.08235289188924322	0.5813170893757801	0.015480845544175836	-0.08071279289095007	0.5628883710211044	0.005817316326680144	-0.07791805464441351	0.532357342110853	-0.012740490043175956	-0.07298373124395502	0.4622830810018608	-0.023011742144276925	-0.051989820119430985
31	1.0666666666666622	0.5419366175485812	-0.019696853641936407	-0.13424576808319819	0.5227873787183499	-0.017194371137655207	-0.12179409215027542	0.4920140047856051	-0.018562303782716727	-0.11732774945473129	0.476199085879922	-0.027595415630005227	-0.07660697796939422	0.5712979980974485	0.04266223486745263	-0.153075311112216	0.5560542953160483	0.03760603815759467	-0.1447048630750107	0.5348680765836098	0.03210131767367691	-0.13234152933304574	0.5009018914180483	0.028492010432236314	-0.1069071576967015	0.5196355925449515	-0.007171982074057726	-0.1150706960905864	0.5350171442000825	-0.004801373931308639	-0.1243328818862863	0.547543607899001	0.020975944630803878	-0.11903881870692673	0.516115119058909	0.02666311763037965	-0.08779695458999046	0.5290076083693608	-0.015679483176492093	-0.10435801163405756	0.5448815313520811	-0.012858624362673265	-0.11242407168163773	0.5582923602506608	0.00713188784414398	-0.10604370578600805	0.5303875377297892	0.010860680987659022	-0.07702409490351103	0.5960711789891145	0.024253783560363618	-0.08219779466817612	0.5816448641495967	0.015217315960390831	-0.08040232997463662	0.5631129156423084	0.005786678750456131	-0.07749682049473275	0.5323946326987661	-0.01250720336239547	-0.07274240978029373	0.4622830810018609	-0.023011742144276925	-0.051989820119430985
32	1.0999999999999952	0.5414930739469955	-0.020074139100502653	-0.13470952114345203	0.5224042831020571	-0.01748323017034925	-0.12218333836521333	0.49165187515624675	-0.018704378575675584	-0.11753380052725218	0.47618313097757314	-0.02751276713493378	-0.07663123038155256	0.571128104909339	0.042558674471211255	-0.15341301901999777	0.5559050634427966	0.03767728313974922	-0.1449023770244104	0.5347559489326391	0.03232254848894417	-0.13241031533485284	0.5008634658209671	0.02852257247550105	-0.10690549491160156	0.5203329174156819	-0.007836488496697658	-0.1162650871358864	0.5358603475551856	-0.004512077257998182	-0.12497411711510006	0.5477038631609785	0.02144768634793459	-0.11903851591392173	0.5160801440261557	0.02662308164256849	-0.08790487506312947	0.5296645718045369	-0.01583035597246535	-0.10515451203187526	0.5456775150648766	-0.01217694136578984	-0.11258675327209824	0.5586758648836351	0.007947058694448006	-0.10578620163530197	0.5303326869653389	0.010910858095343645	-0.0771051801645965	0.5970425555308899	0.02276860334775005	-0.08240473988185748	0.5823664163574721	0.014225471653722621	-0.08025396331954981	0.5636073184314803	0.005370481847526698	-0.07701399116917307	0.5324648214322382	-0.012216339332938864	-0.07235222622244661	0.462283081001861	-0.023011742144276925	-0.051989820119430985
33	1.1333333333333284	0.5406319144259819	-0.020539449713968816	-0.13558279024155967	0.5217085002333746	-0.017866903237408194	-0.12282497339753615	0.4910006516416058	-0.018859837748453734	-0.1178387808699877	0.4761198434602508	-0.027464565709239552	-0.07667556665400849	0.5709927551844282	0.042201374240644185	-0.15387828959887392	0.5557905101321113	0.037588824238232066	-0.14518253616144525	0.5346945741580503	0.032451939161356746	-0.13251037257012052	0.5008702863563996	0.028479134891981395	-0.10694143682871071	0.5218624121810689	-0.009021899259904653	-0.11833089841050509	0.5375069750557204	-0.004197113774412009	-0.12607487009692356	0.5480724570967164	0.022020696326947975	-0.11897511145803846	0.5161265969351122	0.026461649923915698	-0.08805767510434287	0.531188263215966	-0.01629870061002714	-0.10657964671764705	0.5473235801662107	-0.011389309850619256	-0.11294749009563515	0.5593991606898011	0.008990250086812313	-0.10526413986445851	0.5303254928561104	0.010834274673289734	-0.07722769490400225	0.5984386944110134	0.020242696516622305	-0.08279114252706704	0.583427719228753	0.012464674881602689	-0.08011289617493178	0.5643506198040954	0.004541141233180335	-0.07635871036918757	0.532582456867992	-0.011910111357039121	-0.07177356447423644	0.462283081001861	-0.023011742144276925	-0.051989820119430985
34	1.1666666666666616	0.5393991516595524	-0.021053241149203816	-0.13676619066817322	0.5206778681372924	-0.018354126995266395	-0.1237190328909725	0.49004384472547124	-0.01901637353689628	-0.11824746646790038	0.47602471130776125	-0.02740679884749625	-0.0767389774406701	0.5709217991733612	0.041531516724801876	-0.15445567128237403	0.5557399477412175	0.03728669265342677	-0.14553979467402023	0.534702150609963	0.03247248768481403	-0.1326462166064563	0.5009462408893417	0.028347616802531894	-0.10701108264663906	0.5244415823838509	-0.010577793452682227	-0.12133621162087077	0.5399980907187655	-0.00371825507903778	-0.12757654668609197	0.5486319461026701	0.022713388913102428	-0.11884532185319599	0.5162410699687083	0.026182058927200436	-0.08826841238530428	0.5336499940365478	-0.016901445124588355	-0.10858109979396213	0.5497600403918625	-0.010403601754281455	-0.11340234838375413	0.5603784591773268	0.010273539572254464	-0.10446450814916941	0.5303445593728732	0.010667203740481024	-0.07739920332807598	0.6000391688385271	0.01675727152588191	-0.08334380145489623	0.584662133861706	0.010035133138913077	-0.07997339334488085	0.5652425209223794	0.003377398659514641	-0.07557279976121875	0.5327334671295706	-0.011568783162889062	-0.07102785516002508	0.4622830810018609	-0.023011742144276925	-0.051989820119430985
35	1.1999999999999948	0.5377649684718022	-0.021582718441072013	-0.13824136922549804	0.5192996590399428	-0.018875715544083682	-0.12483597915652273	0.4887774827479836	-0.019113985430273372	-0.11874008038243705	0.47585626850772433	-0.027338063803147183	-0.07684381852682332	0.5708309314862252	0.04067685516585373	-0.15512374648438304	0.5556799576610056	0.03686958010700486	-0.1459611786797891	0.5347112132475021	0.03243952601898481	-0.13281978562203525	0.5010399688858252	0.028187584506607244	-0.10709422653167616	0.5284491151725297	-0.01230607029051628	-0.12546088321964177	0.5433768630297487	-0.0028575547348078656	-0.12944684580160687	0.5493336325779485	0.02354664237186721	-0.1186419940348544	0.5164105116611025	0.025805567963921916	-0.08852367261309693	0.5373645023333802	-0.01758031507668678	-0.1112863163444418	0.5530553633937838	-0.009131964758025635	-0.11401069812317366	0.5615032434713254	0.01175169469742493	-0.10339532865507453	0.5303904314934015	0.010414449291836214	-0.07760917850520527	0.601605584813225	0.012354658839142163	-0.08404493370015828	0.5859037070803088	0.006970891937258028	-0.07986568860005688	0.5661988243607332	0.001875569282957179	-0.07471134062418827	0.5328987229688771	-0.011219834269869888	-0.07018396786720049	0.4622830810018608	-0.023011742144276925	-0.051989820119430985
